<?xml version="1.0" standalone="no"?>
<!DOCTYPE svg PUBLIC "-//W3C//DTD SVG 20010904//EN"
 "http://www.w3.org/TR/2001/REC-SVG-20010904/DTD/svg10.dtd">
<svg version="1.0" xmlns="http://www.w3.org/2000/svg"
 width="600.000000pt" height="600.000000pt" viewBox="0 0 600.000000 600.000000"
 preserveAspectRatio="xMidYMid meet">

<g transform="translate(0.000000,600.000000) scale(0.100000,-0.100000)"
fill="#000000" stroke="none">
<path d="M1245 3816 c-272 -63 -469 -268 -560 -581 -120 -413 86 -874 442
-994 184 -62 358 -48 548 45 50 24 98 44 107 44 26 0 48 -28 48 -61 0 -27 3
-29 35 -29 l35 0 0 270 0 270 -33 0 -32 0 -17 -82 c-36 -175 -143 -329 -273
-392 -77 -38 -219 -49 -289 -22 -93 35 -169 153 -200 307 -28 137 -40 400 -27
587 18 268 58 405 143 498 60 65 104 84 204 84 73 0 88 -3 152 -35 128 -64
244 -223 288 -393 17 -68 20 -72 46 -72 l28 0 0 260 0 260 -30 0 c-19 0 -30
-5 -30 -14 0 -26 -30 -46 -70 -46 -24 0 -89 20 -166 51 -109 44 -138 52 -208
55 -47 2 -106 -2 -141 -10z"/>
<path d="M2020 3741 l0 -30 73 -3 72 -3 0 -655 c0 -614 -1 -657 -18 -688 -18
-34 -67 -62 -107 -62 -16 0 -20 -7 -20 -30 l0 -30 185 0 185 0 0 30 c0 27 -3
30 -34 30 -54 0 -95 19 -114 54 -15 28 -17 89 -20 696 -2 424 0 661 7 655 5
-5 124 -336 264 -735 l254 -725 29 -3 30 -3 248 713 c137 392 252 717 257 722
5 6 9 -280 9 -682 l0 -692 -75 0 -75 0 0 -30 0 -30 300 0 300 0 0 30 0 30 -70
0 -70 0 0 705 0 705 70 0 70 0 0 30 0 30 -247 0 -248 0 -144 -413 c-200 -574
-213 -608 -220 -602 -3 4 -82 232 -176 508 l-171 502 -272 3 -272 2 0 -29z"/>
<path d="M3870 3740 l0 -30 74 0 75 0 3 -532 c5 -587 5 -588 69 -709 38 -70
126 -157 196 -193 178 -90 449 -95 637 -12 73 32 165 120 199 190 55 113 57
131 58 641 0 258 4 492 8 519 11 66 45 96 107 96 42 0 44 1 44 30 l0 30 -190
0 -190 0 0 -30 c0 -29 2 -30 46 -30 37 0 51 -5 75 -29 l29 -29 0 -514 c0 -568
-1 -584 -63 -687 -79 -132 -232 -194 -399 -161 -158 31 -240 120 -284 310 -15
64 -18 148 -21 593 l-5 517 76 0 76 0 0 30 0 30 -310 0 -310 0 0 -30z"/>
<path d="M5450 3760 c0 -5 5 -10 10 -10 6 0 10 -16 10 -36 0 -21 4 -33 10 -29
6 3 10 19 10 36 0 16 5 29 10 29 6 0 10 5 10 10 0 6 -13 10 -30 10 -16 0 -30
-4 -30 -10z"/>
<path d="M5521 3723 c1 -41 2 -44 8 -18 7 29 7 29 15 8 10 -31 24 -29 33 5 l7
27 7 -35 c6 -33 6 -33 8 13 0 26 -1 47 -4 47 -3 0 -12 -15 -20 -32 l-14 -33
-11 33 c-17 46 -30 39 -29 -15z"/>
</g>
</svg>
